<mxfile host="app.diagrams.net" modified="2024-02-26T12:24:10.507Z" agent="Mozilla/5.0 (Windows NT 10.0; Win64; x64) AppleWebKit/537.36 (KHTML, like Gecko) Chrome/122.0.0.0 Safari/537.36 Edg/122.0.0.0" etag="YRTFG1y4dtAGAhesi7y6" version="23.1.6" type="device">
  <diagram name="1 oldal" id="k7qnhddqRf9nzqc2Ejq8">
    <mxGraphModel dx="2807" dy="1204" grid="1" gridSize="10" guides="1" tooltips="1" connect="1" arrows="1" fold="1" page="1" pageScale="1" pageWidth="827" pageHeight="1169" math="0" shadow="0">
      <root>
        <mxCell id="0" />
        <mxCell id="1" parent="0" />
        <mxCell id="57wa1wvrsa3jBLDCA3DL-5" value="" style="ellipse;whiteSpace=wrap;html=1;" parent="1" vertex="1">
          <mxGeometry x="-10" y="474.79999999999995" width="90" height="40" as="geometry" />
        </mxCell>
        <mxCell id="_uJxmvS0vkBwXmg9_zSi-1" value="" style="rhombus;whiteSpace=wrap;html=1;" parent="1" vertex="1">
          <mxGeometry x="330" y="480" width="140" height="70" as="geometry" />
        </mxCell>
        <mxCell id="_uJxmvS0vkBwXmg9_zSi-2" value="&lt;div&gt;Közlekedik&lt;br&gt;&lt;/div&gt;" style="text;html=1;align=center;verticalAlign=middle;whiteSpace=wrap;rounded=0;" parent="1" vertex="1">
          <mxGeometry x="370" y="500" width="60" height="30" as="geometry" />
        </mxCell>
        <mxCell id="_uJxmvS0vkBwXmg9_zSi-3" value="" style="rounded=0;whiteSpace=wrap;html=1;" parent="1" vertex="1">
          <mxGeometry x="10" y="559.8" width="120" height="60" as="geometry" />
        </mxCell>
        <mxCell id="_uJxmvS0vkBwXmg9_zSi-4" value="" style="rounded=0;whiteSpace=wrap;html=1;" parent="1" vertex="1">
          <mxGeometry x="676" y="560" width="120" height="60" as="geometry" />
        </mxCell>
        <mxCell id="_uJxmvS0vkBwXmg9_zSi-5" value="Jármű" style="text;html=1;align=center;verticalAlign=middle;whiteSpace=wrap;rounded=0;" parent="1" vertex="1">
          <mxGeometry x="40" y="574.8" width="60" height="30" as="geometry" />
        </mxCell>
        <mxCell id="_uJxmvS0vkBwXmg9_zSi-6" value="Megálló" style="text;html=1;align=center;verticalAlign=middle;whiteSpace=wrap;rounded=0;" parent="1" vertex="1">
          <mxGeometry x="701" y="575" width="60" height="30" as="geometry" />
        </mxCell>
        <mxCell id="_uJxmvS0vkBwXmg9_zSi-7" value="" style="endArrow=none;html=1;rounded=0;exitX=1;exitY=0.5;exitDx=0;exitDy=0;entryX=0;entryY=1;entryDx=0;entryDy=0;" parent="1" source="_uJxmvS0vkBwXmg9_zSi-3" target="6KGySnNj_fVip3hefSK2-7" edge="1">
          <mxGeometry width="50" height="50" relative="1" as="geometry">
            <mxPoint x="210" y="392.8" as="sourcePoint" />
            <mxPoint x="174.43893451469967" y="410.2031495264951" as="targetPoint" />
          </mxGeometry>
        </mxCell>
        <mxCell id="_uJxmvS0vkBwXmg9_zSi-10" value="" style="ellipse;whiteSpace=wrap;html=1;" parent="1" vertex="1">
          <mxGeometry x="358" y="620" width="100" height="40" as="geometry" />
        </mxCell>
        <mxCell id="_uJxmvS0vkBwXmg9_zSi-11" value="járatszám" style="text;html=1;align=center;verticalAlign=middle;whiteSpace=wrap;rounded=0;" parent="1" vertex="1">
          <mxGeometry x="378" y="625" width="60" height="30" as="geometry" />
        </mxCell>
        <mxCell id="_uJxmvS0vkBwXmg9_zSi-12" value="típus" style="ellipse;whiteSpace=wrap;html=1;" parent="1" vertex="1">
          <mxGeometry x="-100" y="529.8" width="90" height="30" as="geometry" />
        </mxCell>
        <mxCell id="_uJxmvS0vkBwXmg9_zSi-13" value="gyártmány" style="ellipse;whiteSpace=wrap;html=1;" parent="1" vertex="1">
          <mxGeometry x="-110" y="619.8" width="90" height="30" as="geometry" />
        </mxCell>
        <mxCell id="_uJxmvS0vkBwXmg9_zSi-14" value="" style="ellipse;whiteSpace=wrap;html=1;" parent="1" vertex="1">
          <mxGeometry x="-60" y="659.8" width="100" height="40" as="geometry" />
        </mxCell>
        <mxCell id="_uJxmvS0vkBwXmg9_zSi-15" value="üzemeltető" style="text;html=1;align=center;verticalAlign=middle;whiteSpace=wrap;rounded=0;" parent="1" vertex="1">
          <mxGeometry x="-40" y="664.8" width="60" height="30" as="geometry" />
        </mxCell>
        <mxCell id="_uJxmvS0vkBwXmg9_zSi-16" value="" style="endArrow=none;html=1;rounded=0;entryX=0;entryY=0.25;entryDx=0;entryDy=0;" parent="1" target="_uJxmvS0vkBwXmg9_zSi-3" edge="1">
          <mxGeometry width="50" height="50" relative="1" as="geometry">
            <mxPoint x="-10" y="544.8" as="sourcePoint" />
            <mxPoint x="40" y="494.79999999999995" as="targetPoint" />
          </mxGeometry>
        </mxCell>
        <mxCell id="_uJxmvS0vkBwXmg9_zSi-17" value="" style="endArrow=none;html=1;rounded=0;entryX=0;entryY=0.75;entryDx=0;entryDy=0;exitX=0.787;exitY=0.189;exitDx=0;exitDy=0;exitPerimeter=0;" parent="1" source="_uJxmvS0vkBwXmg9_zSi-13" target="_uJxmvS0vkBwXmg9_zSi-3" edge="1">
          <mxGeometry width="50" height="50" relative="1" as="geometry">
            <mxPoint x="-20" y="609.8" as="sourcePoint" />
            <mxPoint x="30" y="559.8" as="targetPoint" />
          </mxGeometry>
        </mxCell>
        <mxCell id="_uJxmvS0vkBwXmg9_zSi-18" value="" style="endArrow=none;html=1;rounded=0;entryX=0.5;entryY=1;entryDx=0;entryDy=0;" parent="1" target="_uJxmvS0vkBwXmg9_zSi-3" edge="1">
          <mxGeometry width="50" height="50" relative="1" as="geometry">
            <mxPoint x="20" y="664.8" as="sourcePoint" />
            <mxPoint x="70" y="614.8" as="targetPoint" />
          </mxGeometry>
        </mxCell>
        <mxCell id="_uJxmvS0vkBwXmg9_zSi-19" value="" style="endArrow=none;html=1;rounded=0;exitX=0.5;exitY=0;exitDx=0;exitDy=0;" parent="1" source="_uJxmvS0vkBwXmg9_zSi-3" edge="1">
          <mxGeometry width="50" height="50" relative="1" as="geometry">
            <mxPoint x="-10" y="564.8" as="sourcePoint" />
            <mxPoint x="40" y="514.8" as="targetPoint" />
            <Array as="points" />
          </mxGeometry>
        </mxCell>
        <mxCell id="_uJxmvS0vkBwXmg9_zSi-20" value="" style="endArrow=none;html=1;rounded=0;" parent="1" edge="1">
          <mxGeometry width="50" height="50" relative="1" as="geometry">
            <mxPoint y="504.79999999999995" as="sourcePoint" />
            <mxPoint x="60" y="504.79999999999995" as="targetPoint" />
            <Array as="points">
              <mxPoint x="40" y="504.79999999999995" />
            </Array>
          </mxGeometry>
        </mxCell>
        <mxCell id="_uJxmvS0vkBwXmg9_zSi-21" value="" style="ellipse;whiteSpace=wrap;html=1;" parent="1" vertex="1">
          <mxGeometry x="781" y="490" width="90" height="40" as="geometry" />
        </mxCell>
        <mxCell id="_uJxmvS0vkBwXmg9_zSi-22" value="" style="ellipse;whiteSpace=wrap;html=1;" parent="1" vertex="1">
          <mxGeometry x="841" y="575" width="90" height="42" as="geometry" />
        </mxCell>
        <mxCell id="_uJxmvS0vkBwXmg9_zSi-23" value="" style="ellipse;whiteSpace=wrap;html=1;" parent="1" vertex="1">
          <mxGeometry x="761" y="655" width="150" height="50" as="geometry" />
        </mxCell>
        <mxCell id="_uJxmvS0vkBwXmg9_zSi-24" value="id" style="text;html=1;align=center;verticalAlign=middle;whiteSpace=wrap;rounded=0;strokeColor=none;" parent="1" vertex="1">
          <mxGeometry x="796" y="495" width="60" height="30" as="geometry" />
        </mxCell>
        <mxCell id="_uJxmvS0vkBwXmg9_zSi-25" value="név" style="text;html=1;align=center;verticalAlign=middle;whiteSpace=wrap;rounded=0;" parent="1" vertex="1">
          <mxGeometry x="856" y="581" width="60" height="30" as="geometry" />
        </mxCell>
        <mxCell id="_uJxmvS0vkBwXmg9_zSi-26" value="akadálymentesített-e?" style="text;html=1;align=center;verticalAlign=middle;whiteSpace=wrap;rounded=0;" parent="1" vertex="1">
          <mxGeometry x="798.5" y="665" width="75" height="35" as="geometry" />
        </mxCell>
        <mxCell id="_uJxmvS0vkBwXmg9_zSi-27" value="" style="endArrow=none;html=1;rounded=0;exitX=0;exitY=0.5;exitDx=0;exitDy=0;entryX=0.5;entryY=1;entryDx=0;entryDy=0;" parent="1" source="_uJxmvS0vkBwXmg9_zSi-23" edge="1">
          <mxGeometry width="50" height="50" relative="1" as="geometry">
            <mxPoint x="671" y="695" as="sourcePoint" />
            <mxPoint x="731" y="620" as="targetPoint" />
          </mxGeometry>
        </mxCell>
        <mxCell id="_uJxmvS0vkBwXmg9_zSi-30" value="" style="endArrow=none;html=1;rounded=0;exitX=0.75;exitY=0;exitDx=0;exitDy=0;" parent="1" edge="1">
          <mxGeometry width="50" height="50" relative="1" as="geometry">
            <mxPoint x="761" y="560" as="sourcePoint" />
            <mxPoint x="811" y="530" as="targetPoint" />
          </mxGeometry>
        </mxCell>
        <mxCell id="_uJxmvS0vkBwXmg9_zSi-32" value="" style="endArrow=none;html=1;rounded=0;exitX=1;exitY=0.5;exitDx=0;exitDy=0;" parent="1" edge="1">
          <mxGeometry width="50" height="50" relative="1" as="geometry">
            <mxPoint x="791" y="590" as="sourcePoint" />
            <mxPoint x="841" y="595" as="targetPoint" />
          </mxGeometry>
        </mxCell>
        <mxCell id="_uJxmvS0vkBwXmg9_zSi-33" value="" style="ellipse;whiteSpace=wrap;html=1;" parent="1" vertex="1">
          <mxGeometry x="280" y="560" width="96" height="42" as="geometry" />
        </mxCell>
        <mxCell id="_uJxmvS0vkBwXmg9_zSi-34" value="" style="ellipse;whiteSpace=wrap;html=1;" parent="1" vertex="1">
          <mxGeometry x="490" y="550" width="100" height="40" as="geometry" />
        </mxCell>
        <mxCell id="_uJxmvS0vkBwXmg9_zSi-35" value="dátum" style="text;html=1;align=center;verticalAlign=middle;whiteSpace=wrap;rounded=0;" parent="1" vertex="1">
          <mxGeometry x="298" y="566" width="60" height="30" as="geometry" />
        </mxCell>
        <mxCell id="_uJxmvS0vkBwXmg9_zSi-36" value="érkezik" style="text;html=1;align=center;verticalAlign=middle;whiteSpace=wrap;rounded=0;" parent="1" vertex="1">
          <mxGeometry x="510" y="555" width="60" height="30" as="geometry" />
        </mxCell>
        <mxCell id="_uJxmvS0vkBwXmg9_zSi-40" value="" style="endArrow=none;html=1;rounded=0;exitX=0.5;exitY=0;exitDx=0;exitDy=0;entryX=0;entryY=1;entryDx=0;entryDy=0;" parent="1" source="_uJxmvS0vkBwXmg9_zSi-33" target="_uJxmvS0vkBwXmg9_zSi-1" edge="1">
          <mxGeometry width="50" height="50" relative="1" as="geometry">
            <mxPoint x="350" y="570" as="sourcePoint" />
            <mxPoint x="370" y="530" as="targetPoint" />
          </mxGeometry>
        </mxCell>
        <mxCell id="_uJxmvS0vkBwXmg9_zSi-41" value="" style="endArrow=none;html=1;rounded=0;exitX=0;exitY=0.5;exitDx=0;exitDy=0;" parent="1" source="_uJxmvS0vkBwXmg9_zSi-34" edge="1">
          <mxGeometry width="50" height="50" relative="1" as="geometry">
            <mxPoint x="480" y="560" as="sourcePoint" />
            <mxPoint x="440" y="530" as="targetPoint" />
          </mxGeometry>
        </mxCell>
        <mxCell id="57wa1wvrsa3jBLDCA3DL-3" value="" style="endArrow=none;html=1;rounded=0;entryX=0.5;entryY=1;entryDx=0;entryDy=0;exitX=0.41;exitY=-0.025;exitDx=0;exitDy=0;exitPerimeter=0;" parent="1" source="_uJxmvS0vkBwXmg9_zSi-10" target="_uJxmvS0vkBwXmg9_zSi-1" edge="1">
          <mxGeometry width="50" height="50" relative="1" as="geometry">
            <mxPoint x="389" y="620" as="sourcePoint" />
            <mxPoint x="439" y="570" as="targetPoint" />
          </mxGeometry>
        </mxCell>
        <mxCell id="57wa1wvrsa3jBLDCA3DL-7" value="id" style="text;html=1;align=center;verticalAlign=middle;whiteSpace=wrap;rounded=0;" parent="1" vertex="1">
          <mxGeometry y="479.79999999999995" width="60" height="30" as="geometry" />
        </mxCell>
        <mxCell id="57wa1wvrsa3jBLDCA3DL-8" value="" style="endArrow=none;html=1;rounded=0;" parent="1" edge="1">
          <mxGeometry width="50" height="50" relative="1" as="geometry">
            <mxPoint x="811" y="515" as="sourcePoint" />
            <mxPoint x="841" y="515" as="targetPoint" />
            <Array as="points">
              <mxPoint x="821" y="515" />
            </Array>
          </mxGeometry>
        </mxCell>
        <mxCell id="57wa1wvrsa3jBLDCA3DL-9" value="" style="ellipse;whiteSpace=wrap;html=1;" parent="1" vertex="1">
          <mxGeometry x="450" y="605" width="100" height="40" as="geometry" />
        </mxCell>
        <mxCell id="57wa1wvrsa3jBLDCA3DL-10" value="indul" style="text;html=1;align=center;verticalAlign=middle;whiteSpace=wrap;rounded=0;" parent="1" vertex="1">
          <mxGeometry x="470" y="610" width="60" height="30" as="geometry" />
        </mxCell>
        <mxCell id="57wa1wvrsa3jBLDCA3DL-11" value="" style="endArrow=none;html=1;rounded=0;exitX=0;exitY=0.5;exitDx=0;exitDy=0;entryX=0.664;entryY=0.871;entryDx=0;entryDy=0;entryPerimeter=0;" parent="1" target="_uJxmvS0vkBwXmg9_zSi-1" edge="1">
          <mxGeometry width="50" height="50" relative="1" as="geometry">
            <mxPoint x="467" y="614.03" as="sourcePoint" />
            <mxPoint x="438" y="530" as="targetPoint" />
          </mxGeometry>
        </mxCell>
        <mxCell id="57wa1wvrsa3jBLDCA3DL-13" value="" style="ellipse;whiteSpace=wrap;html=1;" parent="1" vertex="1">
          <mxGeometry x="70" y="679.8" width="150" height="50" as="geometry" />
        </mxCell>
        <mxCell id="57wa1wvrsa3jBLDCA3DL-14" value="akadálymentesített-e?" style="text;html=1;align=center;verticalAlign=middle;whiteSpace=wrap;rounded=0;" parent="1" vertex="1">
          <mxGeometry x="110" y="687.3" width="75" height="35" as="geometry" />
        </mxCell>
        <mxCell id="57wa1wvrsa3jBLDCA3DL-15" value="" style="endArrow=none;html=1;rounded=0;entryX=0.75;entryY=1;entryDx=0;entryDy=0;exitX=0.267;exitY=0.12;exitDx=0;exitDy=0;exitPerimeter=0;" parent="1" source="57wa1wvrsa3jBLDCA3DL-13" target="_uJxmvS0vkBwXmg9_zSi-3" edge="1">
          <mxGeometry width="50" height="50" relative="1" as="geometry">
            <mxPoint x="110" y="674.8" as="sourcePoint" />
            <mxPoint x="30" y="694.8" as="targetPoint" />
          </mxGeometry>
        </mxCell>
        <mxCell id="6KGySnNj_fVip3hefSK2-4" style="edgeStyle=orthogonalEdgeStyle;rounded=0;orthogonalLoop=1;jettySize=auto;html=1;entryX=0;entryY=0.5;entryDx=0;entryDy=0;endArrow=none;endFill=0;" parent="1" source="6KGySnNj_fVip3hefSK2-2" target="_uJxmvS0vkBwXmg9_zSi-3" edge="1">
          <mxGeometry relative="1" as="geometry" />
        </mxCell>
        <mxCell id="6KGySnNj_fVip3hefSK2-2" value="gyártási év" style="ellipse;whiteSpace=wrap;html=1;" parent="1" vertex="1">
          <mxGeometry x="-110" y="574.8" width="90" height="30" as="geometry" />
        </mxCell>
        <mxCell id="6KGySnNj_fVip3hefSK2-5" value="" style="endArrow=none;html=1;rounded=0;" parent="1" edge="1">
          <mxGeometry width="50" height="50" relative="1" as="geometry">
            <mxPoint x="381" y="645" as="sourcePoint" />
            <mxPoint x="430" y="645" as="targetPoint" />
          </mxGeometry>
        </mxCell>
        <mxCell id="6KGySnNj_fVip3hefSK2-8" style="edgeStyle=orthogonalEdgeStyle;rounded=0;orthogonalLoop=1;jettySize=auto;html=1;entryX=0;entryY=0.5;entryDx=0;entryDy=0;endArrow=none;endFill=0;" parent="1" source="6KGySnNj_fVip3hefSK2-7" target="_uJxmvS0vkBwXmg9_zSi-1" edge="1">
          <mxGeometry relative="1" as="geometry" />
        </mxCell>
        <mxCell id="6KGySnNj_fVip3hefSK2-7" value="&lt;u&gt;jármű_id&lt;/u&gt;" style="ellipse;whiteSpace=wrap;html=1;" parent="1" vertex="1">
          <mxGeometry x="160" y="492.5" width="120" height="45" as="geometry" />
        </mxCell>
        <mxCell id="vZCf9D7s0bhnrQTFns-2-2" value="&lt;u&gt;megálló_id&lt;/u&gt;" style="ellipse;whiteSpace=wrap;html=1;" vertex="1" parent="1">
          <mxGeometry x="530" y="485" width="130" height="50" as="geometry" />
        </mxCell>
        <mxCell id="vZCf9D7s0bhnrQTFns-2-3" value="" style="endArrow=none;html=1;rounded=0;fontSize=12;startSize=8;endSize=8;entryX=0.25;entryY=0;entryDx=0;entryDy=0;" edge="1" parent="1" target="_uJxmvS0vkBwXmg9_zSi-4">
          <mxGeometry width="50" height="50" relative="1" as="geometry">
            <mxPoint x="650" y="514.8" as="sourcePoint" />
            <mxPoint x="700" y="550" as="targetPoint" />
          </mxGeometry>
        </mxCell>
        <mxCell id="vZCf9D7s0bhnrQTFns-2-4" value="" style="endArrow=none;html=1;rounded=0;fontSize=12;startSize=8;endSize=8;exitX=1;exitY=0.5;exitDx=0;exitDy=0;entryX=0;entryY=0.5;entryDx=0;entryDy=0;" edge="1" parent="1" source="_uJxmvS0vkBwXmg9_zSi-1" target="vZCf9D7s0bhnrQTFns-2-2">
          <mxGeometry width="50" height="50" relative="1" as="geometry">
            <mxPoint x="475" y="514.8" as="sourcePoint" />
            <mxPoint x="525" y="514.8" as="targetPoint" />
            <Array as="points" />
          </mxGeometry>
        </mxCell>
      </root>
    </mxGraphModel>
  </diagram>
</mxfile>
